<svg data-v-fde0c5aa="" xmlns="http://www.w3.org/2000/svg" viewBox="0 0 300 300" class="font"><!----><defs data-v-fde0c5aa=""><!----></defs><rect data-v-fde0c5aa="" fill="transparent" x="0" y="0" width="300px" height="300px" class="logo-background-square"></rect><defs data-v-fde0c5aa=""><!----></defs><g data-v-fde0c5aa="" id="1ec51a60-f95b-4d78-b7bb-4cc13a543546" fill="#336b76" transform="matrix(3.3008119062489127,0,0,3.3008119062489127,40.92422733768457,119.46748986719757)"><path d="M10.61 11.14L10.61 11.14Q10.85 11.14 10.85 11.79L10.85 11.79Q10.85 12.14 10.56 12.63Q10.26 13.13 9.79 13.54Q9.32 13.96 8.75 14.22Q8.18 14.49 7.63 14.49L7.63 14.49Q6.80 14.49 6.49 14.08Q6.17 13.66 6.17 12.86Q6.17 12.05 6.80 10.09L6.80 10.09Q4.87 10.01 3.99 10.01L3.99 10.01L3.79 10.01Q3.54 11.56 3.54 13.27L3.54 13.27Q3.54 14.03 2.97 14.31L2.97 14.31Q2.70 14.43 2.46 14.55Q2.21 14.66 1.93 14.66L1.93 14.66Q1.23 14.66 1.23 13.40Q1.23 12.14 1.81 10.16L1.81 10.16Q1.19 10.23 0.72 10.30Q0.25 10.37-0.01 10.37Q-0.28 10.37-0.28 10.23L-0.28 10.23Q-0.28 9.81 0.41 9.38L0.41 9.38Q1.11 8.95 2.30 8.72L2.30 8.72Q3.61 5.38 5.52 4.26L5.52 4.26Q6.22 3.84 7 3.84L7 3.84Q8.40 3.85 9.02 4.59Q9.65 5.33 9.65 6.56Q9.66 7.78 8.90 9.74L8.90 9.74Q8.62 10.50 8.39 11.12Q8.15 11.73 8.15 12.11Q8.15 12.49 8.20 12.68Q8.26 12.88 8.47 12.88L8.47 12.88Q8.85 12.88 10.25 11.42L10.25 11.42Q10.50 11.14 10.61 11.14ZM7.63 6.97L7.63 6.97Q7.63 5.75 6.72 5.75L6.72 5.75Q5.80 5.75 5.13 6.53Q4.47 7.31 4.10 8.61L4.10 8.61L7.28 8.65Q7.63 7.53 7.63 6.97ZM13.92 11.21L13.78 13.83Q13.78 14.66 12.17 14.66L12.17 14.66Q11.82 14.66 11.75 14.30Q11.69 13.94 11.69 13.30L11.69 13.30Q11.69 11.94 12.24 9.94L12.24 9.94Q13.15 6.64 14.18 6.05L14.18 6.05Q14.32 5.96 14.49 5.96Q14.66 5.96 14.66 6.51Q14.66 7.06 14.60 7.48L14.60 7.48Q14.49 8.32 14.20 9.65Q13.92 10.98 13.92 11.21L13.92 11.21ZM14.73 10.07L14.73 10.07Q14.73 9.88 14.93 9.83Q15.13 9.77 15.44 9.72Q15.75 9.67 16.11 9.58Q16.48 9.48 16.79 9.21L16.79 9.21Q17.50 8.60 17.50 7.15L17.50 7.15Q17.50 6.23 16.88 5.74Q16.25 5.25 15.09 5.25Q13.92 5.25 12.89 5.74L12.89 5.74Q12.52 5.92 12.21 6.08Q11.91 6.23 11.66 6.23Q11.41 6.23 11.41 6.08L11.41 6.08Q11.41 5.84 11.87 5.29L11.87 5.29Q12.33 4.79 13.34 4.35Q14.34 3.92 15.44 3.92L15.44 3.92Q17.53 3.91 18.69 4.90L18.69 4.90Q19.70 5.77 19.70 7.15Q19.70 8.53 18.70 9.61Q17.71 10.70 16.22 10.70Q14.73 10.70 14.73 10.07ZM22.89 13.83L22.89 13.83Q22.89 14.66 21.28 14.66L21.28 14.66Q20.93 14.66 20.87 14.30Q20.80 13.94 20.80 13.33L20.80 13.33Q20.80 12.12 21.43 9.76Q22.06 7.39 22.71 5.96L22.71 5.96Q21.21 5.99 20.47 6.55L20.47 6.55Q20.24 6.72 20.10 6.85Q19.96 6.99 19.86 6.99Q19.75 6.99 19.66 6.83Q19.56 6.66 19.56 6.44L19.56 6.44Q19.56 5.67 20.24 5.25L20.24 5.25Q21.22 4.66 23.03 4.47L23.03 4.47Q23.83 4.38 24.49 4.38L24.49 4.38L24.51 4.38Q24.61 4.38 24.79 4.49Q24.96 4.61 24.96 4.86Q24.96 5.11 24.87 5.43Q24.78 5.74 24.63 5.89L24.63 5.89Q24.54 6.57 24.26 7.50Q23.98 8.44 23.67 9.51L23.67 9.51Q22.89 12.25 22.89 13.83ZM29.81 11.14L29.81 11.14Q30.04 11.14 30.04 11.79L30.04 11.79Q30.04 12.14 29.75 12.63Q29.46 13.13 28.99 13.54Q28.52 13.96 27.94 14.22Q27.37 14.49 26.85 14.49Q26.33 14.49 26.04 14.29Q25.75 14.10 25.58 13.76L25.58 13.76Q25.34 13.29 25.19 11.95Q25.03 10.61 24.88 10.08L24.88 10.08Q24.51 10.01 24.24 9.79Q23.97 9.58 23.97 9.26Q23.97 8.95 24.25 8.81Q24.54 8.67 24.91 8.67Q25.27 8.67 25.55 8.83L25.55 8.83Q26.31 8.02 26.92 6.71L26.92 6.71Q27.20 6.10 27.46 5.47Q27.72 4.83 28 4.16L28 4.16Q28.07 3.99 28.30 3.96Q28.53 3.92 28.91 3.92Q29.29 3.92 29.44 4.17Q29.60 4.41 29.60 4.96Q29.60 5.52 29.30 6.23Q29.01 6.94 28.55 7.62L28.55 7.62Q27.58 9.03 26.32 9.74L26.32 9.74Q26.54 10.21 26.68 10.76Q26.82 11.31 26.95 11.78Q27.08 12.25 27.24 12.57Q27.40 12.88 27.64 12.88Q27.87 12.88 28.20 12.61Q28.53 12.33 28.85 12.01Q29.18 11.69 29.43 11.42Q29.69 11.14 29.81 11.14ZM44.52 11.14L44.52 11.14Q44.76 11.14 44.76 11.79L44.76 11.79Q44.76 12.14 44.46 12.63Q44.17 13.13 43.70 13.54Q43.23 13.96 42.66 14.22Q42.08 14.49 41.45 14.49Q40.81 14.49 40.45 14.08Q40.10 13.66 40.10 13.15Q40.10 12.64 40.26 12.00Q40.43 11.35 40.63 10.65L40.63 10.65Q41.16 8.79 41.17 8.04L41.17 8.04Q41.17 7.71 41.09 7.54Q41.01 7.36 40.77 7.36L40.77 7.36Q40.35 7.36 39.87 7.87Q39.40 8.37 38.98 9.16L38.98 9.16Q38.01 10.95 37.95 12.66L37.95 12.66Q37.98 12.85 38.01 13.05Q38.04 13.24 38.04 13.47L38.04 13.47Q38.04 13.92 37.60 14.29Q37.16 14.66 36.61 14.66L36.61 14.66Q36.29 14.66 36.13 14.34Q35.98 14.03 35.98 13.57L35.98 13.57Q35.98 13.10 36.19 12.31Q36.40 11.51 36.65 10.61L36.65 10.61Q37.32 8.25 37.34 7.08L37.34 7.08Q37.34 6.50 37.19 6.16Q37.04 5.82 36.62 5.82L36.62 5.82Q35.87 5.82 35.13 6.90Q34.38 7.98 33.80 10.25L33.80 10.25Q33.64 10.84 33.56 11.27L33.56 11.27L33.54 11.54Q33.81 12.82 33.81 13.22L33.81 13.22Q33.81 14.03 33.24 14.31L33.24 14.31Q32.97 14.43 32.73 14.55Q32.48 14.66 32.20 14.66L32.20 14.66Q31.50 14.66 31.50 13.32Q31.50 11.98 32.24 8.09L32.24 8.09Q32.51 6.69 32.51 6.52L32.51 6.52Q32.51 5.39 31.93 5.39L31.93 5.39Q31.74 5.39 31.58 5.50Q31.42 5.61 31.25 5.74Q31.09 5.87 30.93 5.98Q30.76 6.09 30.54 6.09Q30.32 6.09 30.32 5.71L30.32 5.71Q30.32 4.94 31.04 4.45L31.04 4.45Q31.72 3.95 32.70 3.95L32.70 3.95Q33.96 3.95 34.19 5.12L34.19 5.12Q34.24 5.47 34.27 5.87L34.27 5.87Q35.31 3.92 36.89 3.92L36.89 3.92Q38.61 3.92 38.86 5.57L38.86 5.57Q38.95 6.05 38.93 6.59L38.93 6.59L38.93 6.71Q39.84 5.45 41.09 5.45L41.09 5.45Q42.85 5.45 42.85 7.57L42.85 7.57Q42.85 8.50 42.57 9.74Q42.28 10.98 42.15 11.52Q42.01 12.05 42.01 12.35L42.01 12.35Q42.01 12.88 42.38 12.88Q42.76 12.88 44.16 11.42L44.16 11.42Q44.41 11.14 44.52 11.14ZM53.68 5.35L53.68 5.35Q53.68 5.50 53.26 5.50L53.26 5.50Q53.10 5.50 52.85 5.46Q52.60 5.42 51.91 5.33Q51.23 5.25 50.45 5.25Q49.67 5.25 49.04 5.66Q48.41 6.08 47.98 6.72Q47.56 7.36 47.33 8.16Q47.10 8.96 47.10 9.73L47.10 9.73Q47.10 11.13 47.74 11.91Q48.38 12.70 49.53 12.70L49.53 12.70Q51.60 12.70 52.71 11.23L52.71 11.23Q53.05 10.78 53.26 10.23L53.26 10.23Q52.23 10.11 51.69 9.47Q51.14 8.83 51.14 7.90Q51.14 6.97 51.66 6.43Q52.18 5.88 53.05 5.88Q53.93 5.88 54.40 6.54Q54.87 7.21 54.87 8.22L54.87 8.22Q54.87 8.57 54.84 8.88L54.84 8.88Q55.09 8.76 55.26 8.64Q55.43 8.51 55.59 8.51L55.59 8.51Q55.87 8.51 55.87 8.75L55.87 8.75Q55.87 9.24 55.55 9.60Q55.22 9.95 54.67 10.14L54.67 10.14Q54.25 12.18 52.88 13.37Q51.52 14.56 49.35 14.56Q47.18 14.56 45.96 13.24L45.96 13.24Q44.90 12.08 44.90 10.26L44.90 10.26Q44.90 9.03 45.30 7.88Q45.70 6.73 46.43 5.85Q47.17 4.97 48.22 4.44Q49.27 3.91 50.58 3.91Q51.88 3.91 52.78 4.37Q53.68 4.83 53.68 5.35ZM53.23 7.11L53.23 7.11Q52.93 7.11 52.93 7.59L52.93 7.59Q52.93 8.43 53.61 8.81L53.61 8.81Q53.65 8.43 53.65 8.02L53.65 8.02Q53.65 7.11 53.23 7.11ZM56.01 12.03Q56.01 11.86 56.24 11.86Q56.46 11.86 57.62 12.17L57.62 12.17Q57.89 9.87 59.12 7.18L59.12 7.18Q59.56 6.20 60.16 6.20L60.16 6.20Q60.27 6.20 60.38 6.44Q60.48 6.68 60.48 7.03L60.48 7.03Q60.48 7.45 60.04 9.34Q59.60 11.23 59.46 12.63L59.46 12.63Q60.38 12.84 61.09 12.84Q61.80 12.84 62.38 12.47Q62.97 12.10 63.39 11.51L63.39 11.51Q64.26 10.26 64.26 8.51L64.26 8.51Q64.25 5.28 61.68 5.28L61.68 5.28Q60.77 5.29 58.46 6.09L58.46 6.09Q58.02 6.24 57.68 6.24Q57.34 6.24 57.34 6.05L57.34 6.05Q57.34 5.78 57.74 5.42Q58.13 5.05 58.74 4.72L58.74 4.72Q60.26 3.91 61.68 3.91L61.68 3.91Q63.64 3.91 64.90 4.96L64.90 4.96Q66.39 6.20 66.37 8.74L66.37 8.74Q66.37 9.81 66.04 10.86Q65.70 11.91 65.02 12.73Q64.33 13.55 63.28 14.06Q62.23 14.56 60.80 14.56L60.80 14.56Q60.23 14.56 59.35 14.31L59.35 14.31Q59.25 14.57 58.86 14.57L58.86 14.57Q58.13 14.57 57.87 14.33Q57.61 14.08 57.57 13.52L57.57 13.52Q56.90 13.15 56.46 12.74Q56.01 12.33 56.01 12.03L56.01 12.03Z"></path></g><!----><!----></svg>